<svg id="visual" viewBox="0 0 900 600" width="900" height="600" xmlns="http://www.w3.org/2000/svg" xmlns:xlink="http://www.w3.org/1999/xlink" version="1.1"><path d="M0 121L90 115L180 109L270 109L360 85L450 79L540 67L630 91L720 97L810 73L900 79L900 0L810 0L720 0L630 0L540 0L450 0L360 0L270 0L180 0L90 0L0 0Z" fill="#4c4a68"></path><path d="M0 187L90 181L180 187L270 205L360 169L450 175L540 157L630 145L720 169L810 133L900 163L900 77L810 71L720 95L630 89L540 65L450 77L360 83L270 107L180 107L90 113L0 119Z" fill="#43425b"></path><path d="M0 349L90 343L180 331L270 319L360 361L450 355L540 349L630 283L720 355L810 343L900 361L900 161L810 131L720 167L630 143L540 155L450 173L360 167L270 203L180 185L90 179L0 185Z" fill="#3b3a4f"></path><path d="M0 409L90 391L180 403L270 385L360 409L450 421L540 415L630 355L720 421L810 409L900 403L900 359L810 341L720 353L630 281L540 347L450 353L360 359L270 317L180 329L90 341L0 347Z" fill="#333243"></path><path d="M0 529L90 523L180 523L270 541L360 535L450 541L540 553L630 529L720 553L810 559L900 523L900 401L810 407L720 419L630 353L540 413L450 419L360 407L270 383L180 401L90 389L0 407Z" fill="#2b2a37"></path><path d="M0 601L90 601L180 601L270 601L360 601L450 601L540 601L630 601L720 601L810 601L900 601L900 521L810 557L720 551L630 527L540 551L450 539L360 533L270 539L180 521L90 521L0 527Z" fill="#23232c"></path></svg>